<svg xmlns="http://www.w3.org/2000/svg" width="256" height="256" viewBox="0 0 100 100"><rect width="100" height="100" rx="20" fill="#364f6b"></rect><path fill="#fc5185" d="M22.22 71.31L22.22 71.31Q17.81 71.31 14.77 69.52Q11.73 67.73 9.74 64.21L9.74 64.21L14.86 60.43Q16.14 62.74 17.81 63.79Q19.47 64.85 21.39 64.85L21.39 64.85Q24.34 64.85 25.81 63.06Q27.28 61.26 27.28 56.78L27.28 56.78L27.28 28.69L34.70 28.69L34.70 57.42Q34.70 60.30 34 62.83Q33.30 65.36 31.76 67.25Q30.22 69.14 27.86 70.22Q25.49 71.31 22.22 71.31ZM52.56 70.54L45.14 70.54L45.14 28.69L70.42 28.69L70.42 34.96L52.56 34.96L52.56 46.80L67.79 46.80L67.79 53.07L52.56 53.07L52.56 70.54ZM77.78 71.31L77.78 71.31Q73.36 71.31 70.32 69.52Q67.28 67.73 65.30 64.21L65.30 64.21L70.42 60.43Q71.70 62.74 73.36 63.79Q75.02 64.85 76.94 64.85L76.94 64.85Q79.89 64.85 81.36 63.06Q82.83 61.26 82.83 56.78L82.83 56.78L82.83 28.69L90.26 28.69L90.26 57.42Q90.26 60.30 89.55 62.83Q88.85 65.36 87.31 67.25Q85.78 69.14 83.41 70.22Q81.04 71.31 77.78 71.31Z"></path></svg>