<svg xmlns="http://www.w3.org/2000/svg" width="1920.499" height="524.439" viewBox="0 0 1920.499 524.439">
  <path id="Subtraction_1" data-name="Subtraction 1" d="M-1720.331,1436.438h-.043a797.8,797.8,0,0,1-83.531-4.367c-24.9-2.633-49.762-6.5-73.9-11.506a702.562,702.562,0,0,1-117.067-34.909c-14.542-5.791-28.751-12.063-42.23-18.644-10.785-5.265-21.128-10.737-30.741-16.263A295.276,295.276,0,0,1-2093,1334.883V912H-172.5v345.916c-171.384-16.313-330.592-24.585-473.2-24.585-31.8,0-63.208.417-93.342,1.239-31.34.855-62.186,2.173-91.683,3.917-30.6,1.809-60.611,4.128-89.188,6.892-29.594,2.862-58.481,6.282-85.857,10.164-28.3,4.014-55.789,8.635-81.693,13.735-26.738,5.265-52.542,11.187-76.694,17.6-24.893,6.613-48.733,13.937-70.859,21.769-22.772,8.061-44.369,16.887-64.189,26.233s-39.884,18.17-59.648,26.232c-19.2,7.83-38.629,15.155-57.76,21.769-18.558,6.416-37.337,12.339-55.815,17.6-17.9,5.1-36.006,9.722-53.813,13.736-17.224,3.883-34.637,7.3-51.754,10.166-16.528,2.764-33.228,5.083-49.638,6.893-15.815,1.744-31.784,3.062-47.464,3.917C-1690.177,1436.021-1705.4,1436.438-1720.331,1436.438Z" transform="translate(2093 -912)" fill="#364f6b"/>
</svg>
